<svg width="100" height="100" viewBox="0 0 100 100" fill="none" xmlns="http://www.w3.org/2000/svg">
<rect width="100" height="100" fill="white"/>
<g>
<path d="M65.5 46.5V90.5H21V34H53M65.5 46.5L53 34M65.5 46.5H53V34" stroke="black"/>
</g>

<g>
<rect x="25" y="42" width="11" height="4" fill="#C4C4C4"/>
<rect x="39" y="42" width="7" height="4" fill="#C4C4C4"/>
<rect x="25" y="51" width="7" height="4" fill="#C4C4C4"/>
<rect x="34" y="51" width="10" height="4" fill="#C4C4C4"/>
<rect x="46" y="51" width="7" height="4" fill="#C4C4C4"/>
</g>

<g>
<path d="M25.4311 45.1993L26.625 39.8264L28.5733 38.9306L28.0561 40.6527L29.2889 39.3437L29.4872 41.4789L25.4311 45.1993Z" fill="white" stroke="black" stroke-width="0.5"/>
<path d="M42 13.1962L27 39.1769L28.5733 38.9306L28.4311 40.0032L29.2889 39.3437L29.8622 40.8294L44.8622 14.8486L42 13.1962Z" fill="#FFA500" stroke="black"/>
<path d="M26.9311 42.6012L26.0733 43.2607L25.6811 44.7663L26.7888 43.6738L26.9311 42.6012Z" stroke="black"/>
<path d="M43 11.4641L42 13.1961L44.8622 14.8486L45.8622 13.1166L43 11.4641Z" fill="#008000" stroke="black"/>
<path d="M45 8L43 11.4641L45.8622 13.1166L47.8622 9.65248L45 8Z" fill="#FFC0CB" stroke="black"/>
</g>
</svg>
